# xmcd CD database file
#
# Track frame offsets:
#	150
#	19222
#	59067
#	86221
#	117647
#
# Disc length: 1963 seconds
#
# Revision: 0
# Processed by: cddbd v1.5.2PL0 Copyright (c) Steve Scherf et al.
# Submitted via: CDex 1.70beta3
#
DISCID=4807a905
DTITLE=Art Farmer - Homecoming
DYEAR=1971
DGENRE=Jazz
TTITLE0=Homecoming
TTITLE1=Cascavelo
TTITLE2=Some Other Time
TTITLE3=Blue Bossa
TTITLE4=Here's That Rainy Day
EXTD=YEAR: 1971
EXTT0=
EXTT1=
EXTT2=
EXTT3=
EXTT4=
PLAYORDER=
